<?xml version="1.0" encoding="utf-8"?>
<!-- Generator: Adobe Illustrator 25.4.1, SVG Export Plug-In . SVG Version: 6.00 Build 0)  -->
<svg version="1.1" id="Layer_1" xmlns="http://www.w3.org/2000/svg" xmlns:xlink="http://www.w3.org/1999/xlink" x="0px" y="0px"
	 viewBox="0 0 492.2 492.2" style="enable-background:new 0 0 492.2 492.2;" xml:space="preserve">
<style type="text/css">
	.st0{fill:#C8193C;}
	.st1{fill:#FFD4D5;enable-background:new    ;}
	.st2{fill:#FFFFFF;}
</style>
<rect class="st0" width="492.2" height="492.2"/>
<path class="st1" d="M360.3,251.5v21.8H131.9v-21.8H121v54.3h10.8v-21.7h228.3v21.7H371v-54.3L360.3,251.5L360.3,251.5z
	 M251.6,392.8h21.7V382h-21.7L251.6,392.8L251.6,392.8z M284.1,392.8h21.8V382h-21.8V392.8z M338.5,371.1c0,6-4.9,10.8-10.8,10.9
	h-10.8v10.8h10.8c12-0.1,21.7-9.8,21.8-21.8v-10.8h-10.8L338.5,371.1L338.5,371.1z"/>
<path class="st1" d="M142.8,316.7h10.8V295h-10.8V316.7z M142.8,349.3h10.8v-21.7h-10.8V349.3z M186.3,392.8H208V382h-21.7V392.8z
	 M153.7,371.1v-10.9h-10.8V371c0,12,9.8,21.7,21.7,21.8h10.8V382h-10.8C158.5,382,153.7,377.1,153.7,371.1z M218.9,392.9h21.8v-10.8
	h-21.8V392.9z M338.5,349.4h10.8v-21.7h-10.9L338.5,349.4z M338.5,316.7h10.8V295h-10.9L338.5,316.7z"/>
<path class="st2" d="M153.7,121.1c0-6,4.9-10.8,10.8-10.8h108.7v54.3c0.1,12,9.8,21.7,21.8,21.7h43.5v76.2h10.8v-86.9L284,99.4
	H164.5c-12,0-21.7,9.8-21.7,21.8v141.4h10.8L153.7,121.1L153.7,121.1z M284.1,115.6l51.1,59.9H295c-5.5,0-10.9-5.5-10.9-10.8V115.6z
	"/>
</svg>
