<svg xmlns="http://www.w3.org/2000/svg" viewBox="0 0 22 18"><defs><style>.cls-1{fill: currentColor; fill-rule:evenodd;}</style></defs><g id="Layer_2" data-name="Layer 2"><g id="Layer_1-2" data-name="Layer 1"><path class="cls-1" d="M5.94,2.85c.07-.1.15-.22.25-.39L6.48,2C7.31.62,7.91,0,9,0h4c1.09,0,1.69.62,2.52,2l.29.48c.1.17.18.29.25.39l.12.15H19a3,3,0,0,1,3,3v9a3,3,0,0,1-3,3H3a3,3,0,0,1-3-3V6A3,3,0,0,1,3,3H5.82ZM3,5A1,1,0,0,0,2,6v9a1,1,0,0,0,1,1H19a1,1,0,0,0,1-1V6a1,1,0,0,0-1-1H16a1.88,1.88,0,0,1-1.56-1c-.1-.14-.21-.3-.33-.5L13.81,3c-.45-.74-.72-1-.81-1H9c-.09,0-.36.28-.81,1l-.3.49c-.12.2-.23.36-.33.5A1.88,1.88,0,0,1,6,5ZM18,8a1,1,0,1,0-1-1A1,1,0,0,0,18,8Zm-7,7a5,5,0,1,1,5-5A5,5,0,0,1,11,15Zm0-2a3,3,0,1,0-3-3A3,3,0,0,0,11,13Z"/></g></g></svg>