<svg xmlns="http://www.w3.org/2000/svg" viewBox="0 0 250 293.5"><defs><style>.cls-1{fill:#ffd4d5;isolation:isolate;}.cls-2{fill:#fff;}</style></defs><g id="Layer_2" data-name="Layer 2"><g id="Layer_1-2" data-name="Layer 1"><path class="cls-1" d="M239.3,152.1v21.8H10.9V152.1H0v54.3H10.8V184.7H239.1v21.7H250V152.1ZM130.6,293.4h21.7V282.6H130.6v10.8Zm32.5,0h21.8V282.6H163.1Zm54.4-21.7a11,11,0,0,1-10.8,10.9H195.9v10.8h10.8a22,22,0,0,0,21.8-21.8V260.8H217.7l-.2,10.9Z"/><path class="cls-1" d="M21.8,217.3H32.6V195.6H21.8Zm0,32.6H32.6V228.2H21.8Zm43.5,43.5H87V282.6H65.3ZM32.7,271.7V260.8H21.9v10.8a21.9,21.9,0,0,0,21.7,21.8H54.4V282.6H43.6A10.86,10.86,0,0,1,32.7,271.7Zm65.2,21.8h21.8V282.7H97.9ZM217.5,250h10.8V228.3H217.4Zm0-32.7h10.8V195.6H217.4Z"/><path class="cls-2" d="M32.7,21.7A10.82,10.82,0,0,1,43.5,10.9H152.2V65.2A21.83,21.83,0,0,0,174,86.9h43.5v76.2h10.8V76.2L163,0H43.5A21.77,21.77,0,0,0,21.8,21.8V163.2H32.6V21.7Zm130.4-5.5,51.1,59.9H174c-5.5,0-10.9-5.5-10.9-10.8Z"/></g></g></svg>